<?xml version="1.0" encoding="utf-8"?>
<!-- Generator: Adobe Illustrator 26.2.1, SVG Export Plug-In . SVG Version: 6.00 Build 0)  -->
<svg version="1.1" id="layer" xmlns="http://www.w3.org/2000/svg" xmlns:xlink="http://www.w3.org/1999/xlink" x="0px" y="0px"
	 viewBox="0 0 615 236" style="enable-background:new 0 0 615 236;" xml:space="preserve">
<style type="text/css">
	.st0{fill:#A8303C;}
</style>
<g>
	<path class="st0" d="M209.1,95.5v79.6h36.8V95.5h16V69.1h-16V37.5h-36.8v31.6h-38.6V52.2c0-8.8,2.6-13.4,10.1-13.4
		c2.1,0,5.2,0.7,8.6,2V12.1c-6.2-1.3-11.4-2-15.3-2c-26.7,0-40.2,12.5-40.2,37.1v21.7h-16v26.4h16v79.6h36.8V95.4L209.1,95.5
		L209.1,95.5z"/>
	<path class="st0" d="M511.3,166.3c14.3,8.8,30.1,12.9,48.4,12.9c28.2,0,45.6-15,45.6-36.3c0-16.9-9.9-26.1-30.1-32.1
		c-14.8-4.6-24.3-4.9-24.3-12.2c0-4.9,4.2-7.8,12.9-7.8c9.9,0,20.2,3.3,30.6,10.3l7.8-25.9c-14.7-6.5-28.3-9.6-42.3-9.6
		c-27.7,0-43,14.7-43,34c0,16.1,10.1,25.7,32.1,31.6c14,3.6,22.6,3.6,22.6,12.5c0,5.5-4.9,8.8-14.5,8.8c-12.9,0-26.9-5.2-37.8-14.8
		L511.3,166.3z"/>
	<path class="st0" d="M510.8,122.3c0,31.3-25.4,56.7-56.8,56.7c-31.3,0-56.8-25.4-56.8-56.7c0-31.4,25.4-56.8,56.8-56.8
		C485.2,65.5,510.8,90.9,510.8,122.3z M454,96.8c-14,0-25.4,11.4-25.4,25.6c0,14,11.4,25.4,25.4,25.4s25.4-11.4,25.4-25.4
		C479.4,108.2,468,96.8,454,96.8z"/>
	<path class="st0" d="M270.3,222H306v-39.2c0-6.5-0.2-12.5-1-18.6c9.4,16,31.4,15,32.1,15c24.6,0,54.2-22.1,54.2-56.7
		c0-32.7-26.7-56.8-54.4-56.8c-11.6,0-21.3,2.3-32.2,12.9v-9.4h-34.4L270.3,222L270.3,222z M357.9,122.3c0,15-12,27-27,27
		s-27-12-27-27s12-27,27-27C345.7,95.3,357.9,107.3,357.9,122.3z"/>
	<path class="st0" d="M84.2,108.5H39.8c2.1-13.4,11.1-20,23.1-20c11.2,0,21,7.8,22.3,20 M118.1,129.5c2.6-40.7-25.1-63.8-55.4-63.8
		c-35.2,0-57.5,25.6-57.5,57.6c0,34.8,29.3,55.8,57.5,55.8c16.4,0,37.9-7.7,48.7-27.5l-27.5-12.5c-4.1,7.5-10.6,12-21.2,12
		c-15,0-24.3-11.7-24.3-21.7h79.7V129.5z"/>
	<path class="st0" d="M209.1,95.5v79.6h36.8V95.5h16V69.1h-16V37.5h-36.8v31.6h-38.6V52.2c0-8.8,2.6-13.4,10.1-13.4
		c2.1,0,5.2,0.7,8.6,2V12.1c-6.2-1.3-11.4-2-15.3-2c-26.7,0-40.2,12.5-40.2,37.1v21.7h-16v26.4h16v79.6h36.8V95.4L209.1,95.5
		L209.1,95.5z"/>
</g>
</svg>
