<svg xmlns="http://www.w3.org/2000/svg" xmlns:xlink="http://www.w3.org/1999/xlink" id="Layer_1" x="0px" y="0px" viewBox="0 0 2933 2737.5" style="enable-background:new 0 0 2933 2737.5;" xml:space="preserve">
<style type="text/css">
	.st0{fill-rule:evenodd;clip-rule:evenodd;fill:#0077A6;}
</style>
<path class="st0" d="M2540.9,1685.4c0,53.7-34,78.7-94.8,78.7h-116.3v-53.7h116.3c10.7,0,19.7-1.8,23.3-5.3s7.1-9,7.1-16.1  c-0.1-6.6-2.7-13-7.1-17.9c-3.6-3.6-10.7-5.4-21.5-5.4c-55.4-1.8-125.2,1.8-125.2-76.9c0-35.8,23.2-75.2,85.9-75.2h119.9v53.7h-111  c-10.7,0-17.9,0-23.3,3.6c-5.4,5.4-8.9,10.7-8.9,19.7s5.4,14.3,12.5,17.9c7.2,1.8,14.3,3.6,23.3,3.6h32.2c34,0,55.5,7.2,69.8,19.7  C2533.8,1644.2,2540.9,1660.4,2540.9,1685.4z M2288.6,1631.7c-14.3-12.5-35.8-19.7-69.8-19.7h-32.2c-8.9,0-16.1-1.8-23.3-3.6  c-7.2-3.6-12.5-9-12.5-17.9s1.8-14.3,8.9-19.7c5.4-3.6,12.5-3.6,23.3-3.6H2294v-53.7h-119.9c-64.4,0-85.9,39.4-85.9,75.2  c0,78.7,69.8,75.1,125.3,76.9c10.7,0,17.9,1.8,21.4,5.4c4.5,4.9,7,11.2,7.2,17.9c0,7.2-3.6,12.5-7.2,16.1  c-5.4,3.6-12.5,5.3-23.3,5.3h-116.3v53.7h116.3c60.8,0,94.8-25,94.8-78.7C2306.5,1660.4,2299.4,1644.3,2288.6,1631.7L2288.6,1631.7z   M2059.6,1712.3h-141.3v-50.1H2056v-50.1h-137.7v-46.5h141.3v-51.9h-200.4v250.5h200.4L2059.6,1712.3L2059.6,1712.3z M1794.8,1526.2  c-19.7-10.7-42.9-12.6-73.4-12.6h-137.8v250.5h60.8v-91.2h64.4c21.4,0,34,1.8,42.9,10.7c10.7,12.5,10.7,34,10.7,50.1v30.4h59v-48.3  c0-23.2-1.8-34-8.9-46.5c-5.4-7.2-16.1-16.1-30.4-21.5c16.1-5.3,42.9-26.8,42.9-66.2C1825.3,1553,1814.5,1536.9,1794.8,1526.2z   M1454.9,1513.7h-191.4l-76.9,82.3l-73.4-82.3H871.6v250.5h238l76.9-82.3l73.4,82.3h116.3v-84.1h75.2c51.9,0,103.8-14.3,103.8-84.1  C1555.1,1528,1501.4,1513.7,1454.9,1513.7L1454.9,1513.7z M1746.5,1617.5c-8.9,3.6-17.9,3.6-28.6,3.6l-73.3,1.8v-57.3h73.3  c10.7,0,21.5,0,28.6,5.4c7.2,3.6,12.5,10.7,12.5,21.5C1759,1602.2,1754.4,1611.5,1746.5,1617.5L1746.5,1617.5z M1454.9,1630h-78.7  v-64.4h78.7c21.5,0,35.8,9,35.8,30.4S1476.4,1630,1454.9,1630L1454.9,1630z M1224.1,1638.9l93-98.4v202.2L1224.1,1638.9z   M1079.1,1712.2H930.6v-50.1H1063v-50.1H930.6v-46.5h150.3l66.2,73.3L1079.1,1712.2z M2374.5,1332.9h-85.9l-112.7-187.8V1333h-121.6  l-23.3-55.5h-125.2l-23.3,55.5h-69.8c-28.6,0-66.2-7.2-87.7-28.6c-19.7-21.5-30.4-50.1-30.4-94.8c0-37.6,5.4-71.6,32.2-98.4  c17.9-19.7,50.1-28.6,91.2-28.6h57.2v53.7h-57.2c-21.4,0-34,3.6-46.5,14.3c-10.7,10.7-16.1,30.4-16.1,57.2c0,26.8,5.4,46.5,16.1,59  c8.9,8.9,25.1,12.5,41.1,12.5h26.8l85.9-196.8h89.5l100.2,236.2v-236.2h93l105.6,173.6v-173.6h60.8L2374.5,1332.9L2374.5,1332.9z   M1664.2,1082.5h-60.8V1333h60.8V1082.5z M1537.2,1093.2c-19.7-10.7-41.1-10.7-71.6-10.7h-137.8V1333h59v-91.3h64.4  c21.5,0,35.8,1.8,44.7,10.7c10.7,12.5,8.9,34,8.9,48.3v32.2h60.8v-50.1c0-21.5-1.8-32.2-10.7-44.7c-5.4-7.2-16.1-16.1-28.6-21.5  c16.1-7.2,42.9-26.8,42.9-66.2C1569.3,1121.8,1556.8,1105.7,1537.2,1093.2L1537.2,1093.2z M1284.9,1281.1h-139.5V1231h137.8v-51.9  h-137.8v-44.7h139.5v-51.9h-200.4V1333h200.4V1281.1z M1039.8,1082.5h-98.4l-73.4,170l-78.7-170h-96.6v236.2l-102-236.2h-89.4  L393.9,1333h64.4l23.3-55.5h125.2l23.3,55.5h121.6v-196.8l87.7,196.8h51.9l87.7-196.8V1333h60.8L1039.8,1082.5L1039.8,1082.5z   M2009.5,1223.8l-41.2-98.4l-41.1,98.4H2009.5z M1490.7,1184.5c-8.9,5.4-17.9,5.4-30.4,5.4h-73.4v-55.4h73.4c10.7,0,23.2,0,30.4,3.6  c7.2,5.4,10.7,12.5,10.7,23.2S1497.8,1180.9,1490.7,1184.5L1490.7,1184.5z M503,1223.8l41.2-98.4l41.2,98.4H503z M2526.6,297H392.1  v901.8l73.3-166.4h155.7l21.5,41.2v-41.2h182.5l41.2,89.5l39.4-89.5h581.5c26.8,0,50.1,5.4,68,19.7v-19.7h159.2v19.7  c26.8-14.3,60.8-19.7,100.2-19.7h230.8l21.5,41.2v-41.2h170l25.1,41.2v-41.2h166.4v350.7H2260l-32.2-53.7v53.7h-209.3l-23.2-57.2  h-51.9l-23.2,57.2h-109.2c-43,0-75.2-10.7-96.6-21.5v21.5h-259.4v-80.5c0-10.7-1.8-12.5-9-12.5h-8.9v93H936v-44.7l-17.8,44.8H812.6  l-17.9-42.9v42.9H592.5l-21.5-57.2h-51.9l-23.3,57.2H392.1v1057.4h2134.5v-642.3c-23.3,10.7-55.5,16.1-87.7,16.1h-155.7v-21.5  c-17.9,14.3-50.1,21.5-80.5,21.5h-490.2v-80.5c0-10.7-1.8-10.7-10.7-10.7h-8.9v91.2h-161v-94.8c-26.8,12.5-57.2,12.5-84.1,12.5  h-17.9v82.3H1233l-46.5-53.7l-51.9,53.7H817.9v-350.7H1140l46.5,53.7l50.1-53.7h216.5c25,0,66.2,3.6,84.1,21.5v-21.5h193.2  c19.7,0,57.3,3.6,82.3,21.5v-21.5h291.6v21.5c16.1-14.3,46.5-21.4,73.4-21.4h162.8v21.4c17.9-12.5,42.9-21.4,75.2-21.4h110.9V297z"></path>
</svg>