<svg xmlns="http://www.w3.org/2000/svg" xmlns:xlink="http://www.w3.org/1999/xlink" id="Layer_1" data-name="Layer 1" viewBox="0 0 2049.22 1578.25"><defs><style>.cls-1{fill:#fff;}.cls-2{fill:url(#linear-gradient);}.cls-3{fill:url(#linear-gradient-2);}.cls-4{fill:url(#linear-gradient-3);}.cls-5{fill:url(#linear-gradient-4);}.cls-6{fill:url(#linear-gradient-5);}</style><linearGradient id="linear-gradient" x1="700.8" y1="2192.87" x2="745.73" y2="2192.87" gradientTransform="matrix(12.53, 0, 0, -12.53, -7404.18, 28374.92)" gradientUnits="userSpaceOnUse"><stop offset="0" stop-color="#007940"></stop><stop offset="0.23" stop-color="#00873f"></stop><stop offset="0.74" stop-color="#40a737"></stop><stop offset="1" stop-color="#5cb531"></stop></linearGradient><linearGradient id="linear-gradient-2" x1="700.8" y1="2199.82" x2="745.7" y2="2199.82" xlink:href="#linear-gradient"></linearGradient><linearGradient id="linear-gradient-3" x1="700.8" y1="2207.47" x2="745.73" y2="2207.47" xlink:href="#linear-gradient"></linearGradient><linearGradient id="linear-gradient-4" x1="600.19" y1="2199.87" x2="645.83" y2="2199.87" gradientTransform="matrix(12.53, 0, 0, -12.53, -7404.18, 28374.92)" gradientUnits="userSpaceOnUse"><stop offset="0" stop-color="#1f286f"></stop><stop offset="0.47" stop-color="#004e94"></stop><stop offset="0.83" stop-color="#0066b1"></stop><stop offset="1" stop-color="#006fbc"></stop></linearGradient><linearGradient id="linear-gradient-5" x1="650.25" y1="2199.77" x2="694.58" y2="2199.77" gradientTransform="matrix(12.53, 0, 0, -12.53, -7404.18, 28374.92)" gradientUnits="userSpaceOnUse"><stop offset="0" stop-color="#6c2c2f"></stop><stop offset="0.17" stop-color="#882730"></stop><stop offset="0.57" stop-color="#be1833"></stop><stop offset="0.86" stop-color="#dc0436"></stop><stop offset="1" stop-color="#e60039"></stop></linearGradient></defs><path class="cls-1" d="M2049.22,1290.71c0,175.36-142.79,318.15-318.15,318.15H0V348.77C0,173.41,142.79,30.61,318.16,30.61H2049.22Z" transform="translate(0 -30.61)"></path><path class="cls-2" d="M1485.56,967.54h131.52c3.76,0,12.53-1.25,16.28-1.25,25.06-5,46.35-27.56,46.35-58.87,0-30.06-21.29-52.61-46.35-58.87-3.75-1.25-11.27-1.25-16.28-1.25H1485.56Z" transform="translate(0 -30.61)"></path><path class="cls-3" d="M1602.05,137.08c-125.26,0-228,101.46-228,228V601.79H1696c7.52,0,16.29,0,22.55,1.25,72.65,3.76,126.51,41.34,126.51,106.47,0,51.36-36.32,95.2-104,104V816c73.9,5,130.27,46.35,130.27,110.23,0,68.89-62.63,114-145.3,114H1372.83v463.46h334.44c125.26,0,228-101.46,228-228V137.08Z" transform="translate(0 -30.61)"></path><path class="cls-4" d="M1663.43,724.54c0-30.06-21.3-50.1-46.35-53.86-2.5,0-8.77-1.25-12.52-1.25h-119V779.66h119c3.75,0,11.27,0,12.52-1.26,25.05-3.75,46.35-23.8,46.35-53.86Z" transform="translate(0 -30.61)"></path><path class="cls-5" d="M342,137.08c-125.25,0-228,101.46-228,228V927.46c63.89,31.32,130.27,51.36,196.66,51.36,78.91,0,121.5-47.6,121.5-112.74V600.54h195.4V864.83c0,102.71-63.88,186.64-280.58,186.64-131.52,0-234.23-28.81-234.23-28.81v479.73H447.17c125.26,0,228-101.45,228-228V137.08Z" transform="translate(0 -30.61)"></path><path class="cls-6" d="M972,137.08c-125.26,0-228,101.46-228,228V663.17c57.62-48.85,157.83-80.17,319.41-72.65,86.43,3.75,179.12,27.55,179.12,27.55v96.45c-46.35-23.8-101.46-45.09-172.86-50.1C947,655.65,873.05,715.77,873.05,821c0,106.47,73.9,166.59,196.65,156.57,71.4-5,126.51-27.55,172.86-50.1v96.45s-91.44,23.8-179.12,27.56C901.86,1059,801.65,1027.67,744,978.82V1504.9h334.44c125.26,0,228-101.46,228-228V137.08Z" transform="translate(0 -30.61)"></path></svg>