<svg xmlns:cc="http://creativecommons.org/ns#" xmlns:dc="http://purl.org/dc/elements/1.1/" xmlns:inkscape="http://www.inkscape.org/namespaces/inkscape" xmlns:rdf="http://www.w3.org/1999/02/22-rdf-syntax-ns#" xmlns:sodipodi="http://sodipodi.sourceforge.net/DTD/sodipodi-0.dtd" xmlns:svg="http://www.w3.org/2000/svg" xmlns="http://www.w3.org/2000/svg" xmlns:xlink="http://www.w3.org/1999/xlink" id="svg3409" inkscape:version="0.91 r13725" sodipodi:docname="MasterCard 2016.svg" x="0px" y="0px" viewBox="0 0 1070 1033.5" style="enable-background:new 0 0 1070 1033.5;" xml:space="preserve">
<style type="text/css">
	.st0{fill:#FF5F00;}
	.st1{fill:#EB001B;}
	.st2{fill:#F79E1B;}
</style>

<g id="layer1_1_" transform="matrix(3.3557321,0,0,3.3557321,-1551.7864,-1849.1059)">
	<g id="g13_1_" transform="matrix(2.5579399,0,0,2.5579399,884.90115,-11.427398)">
		<g id="g15_1_" transform="translate(-502.86126,-41.013507)">
			<path id="XMLID_3_" inkscape:connector-curvature="0" d="M362.1,365.4v-6.1c0-2.3-1.4-3.9-3.9-3.9c-1.2,0-2.5,0.4-3.5,1.7     c-0.7-1.1-1.7-1.7-3.3-1.7c-1,0-2,0.3-2.8,1.4v-1.2h-2.1v9.8h2.1V360c0-1.7,0.9-2.5,2.3-2.5s2.1,0.9,2.1,2.5v5.4h2.1V360     c0-1.7,1-2.5,2.3-2.5c1.4,0,2.1,0.9,2.1,2.5v5.4H362.1z M393.7,355.6h-3.5v-2.9h-2.1v2.9h-1.9v1.9h1.9v4.5c0,2.2,0.9,3.6,3.4,3.6     c0.9,0,1.9-0.3,2.6-0.7l-0.6-1.8c-0.6,0.4-1.3,0.5-1.8,0.5c-1,0-1.4-0.6-1.4-1.6v-4.4h3.5V355.6z M411.8,355.4     c-1.2,0-2,0.6-2.5,1.4v-1.2h-2.1v9.8h2.1v-5.5c0-1.6,0.7-2.5,2-2.5c0.4,0,0.9,0.1,1.3,0.2l0.6-2     C412.9,355.4,412.3,355.4,411.8,355.4L411.8,355.4z M384.5,356.4c-1-0.7-2.4-1-4-1c-2.4,0-4.1,1.2-4.1,3.2c0,1.6,1.2,2.5,3.4,2.8     l1,0.1c1.1,0.2,1.7,0.5,1.7,1c0,0.7-0.8,1.2-2.2,1.2c-1.4,0-2.5-0.5-3.3-1l-1,1.6c1.1,0.8,2.6,1.2,4.2,1.2c2.8,0,4.5-1.3,4.5-3.2     c0-1.7-1.3-2.6-3.4-2.9l-1-0.1c-0.9-0.1-1.6-0.3-1.6-0.9c0-0.7,0.7-1.1,1.8-1.1c1.2,0,2.4,0.5,3.1,0.8L384.5,356.4L384.5,356.4z      M441.2,355.4c-1.2,0-2,0.6-2.5,1.4v-1.2h-2.1v9.8h2.1v-5.5c0-1.6,0.7-2.5,2-2.5c0.4,0,0.9,0.1,1.3,0.2l0.6-2     C442.3,355.4,441.7,355.4,441.2,355.4L441.2,355.4z M414,360.5c0,2.9,2,5.1,5.2,5.1c1.4,0,2.4-0.3,3.5-1.1l-1-1.7     c-0.8,0.6-1.6,0.9-2.5,0.9c-1.7,0-2.9-1.2-2.9-3.2c0-1.8,1.2-3.1,2.9-3.2c0.9,0,1.7,0.3,2.5,0.9l1-1.7c-1-0.8-2-1.1-3.5-1.1     C416,355.4,414,357.5,414,360.5L414,360.5L414,360.5z M433.7,360.5v-4.9h-2.1v1.2c-0.7-0.9-1.7-1.4-3.1-1.4     c-2.7,0-4.9,2.1-4.9,5.1c0,2.9,2.1,5.1,4.9,5.1c1.4,0,2.4-0.5,3.1-1.4v1.2h2.1V360.5L433.7,360.5z M425.9,360.5     c0-1.7,1.1-3.2,2.9-3.2c1.7,0,2.9,1.3,2.9,3.2c0,1.7-1.2,3.2-2.9,3.2C427,363.5,425.9,362.2,425.9,360.5L425.9,360.5z      M400.4,355.4c-2.8,0-4.9,2-4.9,5.1c0,3.1,2,5.1,5,5.1c1.4,0,2.8-0.4,4-1.3l-1-1.5c-0.8,0.6-1.8,1-2.8,1c-1.3,0-2.6-0.6-2.9-2.3     h7.2c0-0.3,0-0.5,0-0.8C404.9,357.4,403.1,355.4,400.4,355.4L400.4,355.4L400.4,355.4z M400.4,357.2c1.3,0,2.2,0.8,2.4,2.3h-5.1     C397.9,358.2,398.8,357.2,400.4,357.2L400.4,357.2z M453.3,360.5v-8.7h-2.1v5.1c-0.7-0.9-1.7-1.4-3.1-1.4c-2.7,0-4.9,2.1-4.9,5.1     c0,2.9,2.1,5.1,4.9,5.1c1.4,0,2.4-0.5,3.1-1.4v1.2h2.1V360.5L453.3,360.5z M445.5,360.5c0-1.7,1.1-3.2,2.9-3.2     c1.7,0,2.9,1.3,2.9,3.2c0,1.7-1.2,3.2-2.9,3.2C446.6,363.5,445.5,362.2,445.5,360.5L445.5,360.5z M374.1,360.5v-4.9H372v1.2     c-0.7-0.9-1.7-1.4-3.1-1.4c-2.7,0-4.9,2.1-4.9,5.1c0,2.9,2.1,5.1,4.9,5.1c1.4,0,2.4-0.5,3.1-1.4v1.2h2.1V360.5L374.1,360.5z      M366.2,360.5c0-1.7,1.1-3.2,2.9-3.2c1.7,0,2.9,1.3,2.9,3.2c0,1.7-1.2,3.2-2.9,3.2C367.3,363.5,366.2,362.2,366.2,360.5z"></path>
		</g>
		<g id="XMLID_1_" transform="translate(-502.86126,-41.013507)">
			<rect id="rect19_1_" x="383.8" y="281.4" class="st0" width="32" height="57.6"></rect>
			<path id="XMLID_2_" inkscape:connector-curvature="0" class="st1" d="M385.8,310.2c0-11.7,5.5-22.1,13.9-28.8     c-6.2-4.9-14-7.8-22.6-7.8c-20.2,0-36.6,16.4-36.6,36.6s16.4,36.6,36.6,36.6c8.5,0,16.4-2.9,22.6-7.8     C391.3,332.4,385.8,321.9,385.8,310.2z"></path>
			<path id="path22_1_" inkscape:connector-curvature="0" class="st2" d="M459,310.2c0,20.2-16.4,36.6-36.6,36.6     c-8.5,0-16.4-2.9-22.6-7.8c8.5-6.7,13.9-17.1,13.9-28.8c0-11.7-5.5-22.1-13.9-28.8c6.2-4.9,14-7.8,22.6-7.8     C442.7,273.6,459,290.1,459,310.2z"></path>
		</g>
	</g>
</g>
</svg>