<svg xmlns="http://www.w3.org/2000/svg" xmlns:xlink="http://www.w3.org/1999/xlink" id="Layer_1" x="0px" y="0px" viewBox="0 0 2500 912.5" style="enable-background:new 0 0 2500 912.5;" xml:space="preserve">
<style type="text/css">
	.st0{fill:#2566AF;}
	.st1{fill:#E6A540;}
	.st2{fill:none;}
</style>
<g>
	<path class="st0" d="M1085.5,845.5H883.6l126.2-775.4h201.9L1085.5,845.5z M713.8,70.1L521.3,603.4l-22.8-114.8l0,0l-67.9-348.7   c0,0-8.2-69.8-95.8-69.8H16.7L13,83.2c0,0,97.3,20.2,211.2,88.6l175.4,673.7h210.3L931.1,70.1L713.8,70.1L713.8,70.1z    M2301.7,845.5H2487L2325.4,70.1h-162.3c-74.9,0-93.2,57.8-93.2,57.8l-301.1,717.6h210.4l42.1-115.2H2278L2301.7,845.5   L2301.7,845.5z M2079.5,571.2L2185.6,281l59.7,290.2H2079.5z M1784.6,256.5L1813.4,90c0,0-88.9-33.8-181.6-33.8   c-100.2,0-338.1,43.8-338.1,256.7c0,200.3,279.2,202.8,279.2,308s-250.5,86.4-333.1,20l-30,174.1c0,0,90.1,43.8,227.9,43.8   c137.8,0,345.6-71.3,345.6-265.5c0-201.6-281.7-220.4-281.7-308C1501.6,197.7,1698.2,208.9,1784.6,256.5L1784.6,256.5z"></path>
</g>
<path class="st1" d="M511.5,488.3l-67.9-348.7c0,0-8.2-69.8-95.8-69.8H29.7l-3.7,13.1c0,0,152.9,31.7,299.6,150.4  C465.8,346.9,511.5,488.3,511.5,488.3z"></path>
<path class="st2" d="M0-650.6h2500v2500H0V-650.6z"></path>
</svg>